<?xml version="1.0" encoding="utf-8"?>
<!-- Generator: Adobe Illustrator 19.0.1, SVG Export Plug-In . SVG Version: 6.00 Build 0)  -->
<!DOCTYPE svg PUBLIC "-//W3C//DTD SVG 1.1//EN" "http://www.w3.org/Graphics/SVG/1.1/DTD/svg11.dtd">
<svg version="1.1" id="Layer_1" xmlns="http://www.w3.org/2000/svg" xmlns:xlink="http://www.w3.org/1999/xlink" x="0px" y="0px"
	 viewBox="0 0 2229.8 424.3" enable-background="new 0 0 2229.8 424.3" xml:space="preserve">
<g>
	<g>
		<g>
			<path fill="#EE7B1F" d="M211.8,285h-56.4L93.2,182.4c-3.4,0.3-8.4,0.4-15.2,0.4c-6.5,0-15.9-0.3-28.4-0.8v103H1V2.7
				c25.7-3.1,50.7-4.7,75-4.7c38.6,0,67.7,8.3,87.3,24.9c19.6,16.6,29.4,38.2,29.4,64.9c0,18.4-4.9,34.8-14.6,49.2
				c-9.7,14.4-23.4,25.5-41,33.2L211.8,285z M141.4,90.2c0-14.5-5.2-26.2-15.7-35.2c-10.5-8.9-25-13.4-43.4-13.4
				c-14,0-24.9,0.8-32.7,2.3v97.2c8,1,17.4,1.6,28,1.6c20.7,0,36.6-4.6,47.4-13.8C135.9,119.7,141.4,106.8,141.4,90.2z"/>
			<path fill="#EE7B1F" d="M521.3,142.7c0,42-13.9,77-41.8,105c-27.9,28-62.4,42-103.6,42c-41.2,0-75.3-13.9-102.3-41.8
				c-27-27.9-40.4-62.9-40.4-105.2c0-42.3,13.9-77.4,41.6-105.4c27.7-28,62.3-42,103.8-42c41.2,0,75.3,13.9,102.3,41.8
				C507.8,65,521.3,100.2,521.3,142.7z M469.2,142.7c0-30.1-8.6-54.9-25.7-74.5c-17.1-19.6-39.1-29.4-66.1-29.4
				c-27,0-49.1,9.8-66.3,29.4c-17.2,19.6-25.9,44.4-25.9,74.5c0,29.8,8.6,54.6,25.9,74.3c17.2,19.7,39.3,29.6,66.3,29.6
				c26.7,0,48.7-9.8,65.9-29.6C460.6,197.3,469.2,172.5,469.2,142.7z"/>
		</g>
	</g>
	<g>
		<g>
			<path fill="#10132F" d="M809.7,285h-60.3L632.8,148.2V285h-48.6V0h48.6v128.3L744.8,0h58.7L679,136.9L809.7,285z"/>
			<path fill="#10132F" d="M1073.7,285h-48.6V162.5h-131V285h-48.6V0h48.6v119h131V0h48.6V285z"/>
			<path fill="#10132F" d="M1373.1,285h-51.3l-27.6-65.3h-112.8l-27.6,65.3h-50.2L1235.1-3.9h7L1373.1,285z M1278.3,181.2
				l-40.4-95.3l-40.4,95.3H1278.3z"/>
			<path fill="#10132F" d="M1635.6,289.3l-5.4,1.2l-178.5-188.2V285h-48.6V-3.9l7.8-1.6L1587,180V0h48.6V289.3z"/>
			<path fill="#10132F" d="M1930.4,289.3l-5.4,1.2l-178.5-188.2V285h-48.6V-3.9l7.8-1.6L1881.8,180V0h48.6V289.3z"/>
			<path fill="#10132F" d="M2229.8,285h-51.3l-27.6-65.3h-112.8l-27.6,65.3h-50.2L2091.7-3.9h7L2229.8,285z M2134.9,181.2
				l-40.4-95.3l-40.4,95.3H2134.9z"/>
		</g>
	</g>
	<g>
		<g>
			<path fill="#10132F" d="M586.1,420.6c5.7-0.6,9.1-3.3,9.1-7.8v-60.2c0-6-0.6-7.3-10.3-9.2v-3.1h34.5c24.4,0,48,9.2,48,38.9
				c0,28.5-21.3,45.1-52.8,45.1h-10.2c-6.3,0-18.3,0.4-18.3,0.4V420.6z M614.6,419.4c29.5,0,40.3-16.4,40.3-37.3
				c0-22.3-12.5-36.9-36-36.9h-11.3l-1.3,1.3v65.9c0,3.8-0.6,7.1-0.6,7.1H614.6z"/>
			<path fill="#10132F" d="M679.1,420.6c5.7-0.6,9.1-3.3,9.1-7.8v-60.2c0-6-0.6-7.3-10.3-9.2v-3.1h51.9c5.2,0,9.1-0.5,9.1-0.5
				l-3.9,21h-4.3c0.6-13-3.5-15.6-13.6-15.6h-16.5l-1.3,1.3v32.7h23.3l1-7.2l4.7-0.8v22.2h-5.9v-9.3h-21.8l-1.3,1.3v26.9
				c0,3.8-0.6,7.1-0.6,7.1h19.8c10.8,0,12.3-2.4,18.6-15.6h4.3l-4.7,20.5h-39.3c-6.3,0-18.3,0.4-18.3,0.4V420.6z"/>
			<path fill="#10132F" d="M751.5,420.6c5.7-0.6,8.8-3.1,9.1-7.8l2.4-60.2c0.3-6-0.5-7.3-10.2-9.2v-3.1h10.1
				c10.1,0,13.9-0.5,13.9-0.5l0.5,0.5c0,0,1.6,6.5,3.7,11.6l19.3,49.4c0.9,2.1,1.8,4.9,2.4,7.2l24.4-59.4c1-2.6,2.8-8.7,2.8-8.7h3.3
				c11.1,0,13.6-0.5,13.6-0.5l0.6,0.5c0,0-4.4,5.2-4,15.9l2.4,57c0.1,3.9-0.4,6.4-0.4,6.4l11.1,0.8l-0.5,3.5l-30.1,0.8v-4
				c5.5-0.6,9.2-3.1,9.1-7.4l-2.8-62.1l-30.2,73.2l-3.9-1.5l-29.1-71.5c0,0-0.3,2.5-0.4,4.9l-2.3,56.7c-0.1,3.5-0.9,6.8-0.9,6.8
				l11.6,0.8l-0.5,3.5l-24.8,0.8V420.6z"/>
			<path fill="#10132F" d="M910,338.8c26.3,0,43.1,17.8,43.1,40.5c0,24.1-18.4,46.5-46.2,46.5c-25.8,0-42.6-19.5-42.6-42.4
				C864.3,360.7,880.6,338.8,910,338.8z M909.4,420.8c19.8,0,31.2-19.9,31.2-38.3c0-18.9-11.8-38.7-32.7-38.7
				c-19.6,0-31.1,17.8-31.1,36.3C876.8,398.8,888.6,420.8,909.4,420.8z"/>
			<path fill="#10132F" d="M1010.5,338.8c9.4,0,20.7,2.3,27.2,2.9l-3.8,19.1h-4.3c0-13.1-11.1-17.3-21.3-17.3
				c-19.4,0-32.2,15.6-32.2,36c0,22.7,15.9,37.9,36.4,37.9c15.7,0,25.3-8.9,25.3-8.9l1.8,2.6c0,0-9.4,14.6-31.4,14.6
				c-22.4,0-43.8-15.4-43.8-42.6C964.4,357.5,983.4,338.8,1010.5,338.8z"/>
			<path fill="#10132F" d="M1051,420.6c5.5-0.6,9.1-3.5,9.1-7.8v-60.2c0-6-0.6-7.3-10.3-9.2v-3.1h29.2c22.7,0,31.2,9.3,31.2,20.3
				c0,11.8-10.6,19.9-16.6,23v1.6l18.1,26.6c5.4,7.8,7.9,8.1,11.2,8.3l1.4,0.1l-0.5,4h-18.3l-0.5-0.4c0,0-2.6-6.3-7.8-13.9l-15.6-23
				h-9.2l-1.3,1.3v24.6c0,3.7-0.6,6.4-0.6,6.4l11.3,1.1l-0.5,3.5l-30.3,0.8V420.6z M1081.8,382.1c7.6,0,16.2-6,16.2-18.3
				c0-9.6-5.4-18.6-20.9-18.6h-4.7l-1.3,1.3v35.6H1081.8z"/>
			<path fill="#10132F" d="M1121.7,420.6c5.3-0.5,7.4-3.1,8.4-5.7l29.8-74.3l5.2-1.1l28,71.5c3.4,8.6,5.7,9.2,9.6,9.8l-0.5,3.4h-5.4
				c-4.7,0-19.1,0.4-19.1,0.4v-4.3c3.5-0.1,6.7-1.1,5.3-4.9l-7.7-20.1h-30.1l-1.6,1.3l-8.7,22.7l10.7,1.5l-0.5,3.5h-23.3V420.6z
				 M1159.8,353.6l-14,36.4h27.3l-10.8-28.7C1161.4,358.8,1160.4,355.5,1159.8,353.6z"/>
			<path fill="#10132F" d="M1222.7,420.6c5.7-0.6,9.1-3.7,9.1-8.2v-67.2h-12.5c-8.7,0-12.5,2.6-17.3,15.6h-4.3l3.9-21.3
				c0,0,3.3,0.8,8.4,0.8h58.9c5.2,0,9.1-0.8,9.1-0.8l-3.9,21.3h-4.3c0.6-13-3.5-15.6-13.3-15.6h-12.5l-1.3,1.3v66
				c0,3.8-0.6,6.8-0.6,6.8l12.6,1.1l-0.5,3.5l-31.6,0.8V420.6z"/>
			<path fill="#10132F" d="M1313.3,420.6c5.7-0.6,9.1-3.7,9.1-8.2v-59.8c0-6-0.6-7.3-10.3-9.2v-3.1h50.6c5.2,0,9.1-0.5,9.1-0.5
				l-3.9,21h-4.3c0.6-13-3.5-15.6-13.6-15.6h-15.2l-1.3,1.3v33.4h22.4l1-7.2l4.7-0.8v22.2h-5.9v-9.3h-20.9l-1.3,1.3v26.4
				c0,3.8-0.6,6.8-0.6,6.8l13.9,1.1l-0.5,3.5l-32.9,0.8V420.6z"/>
			<path fill="#10132F" d="M1424.8,338.8c26.3,0,43.1,17.8,43.1,40.5c0,24.1-18.4,46.5-46.2,46.5c-25.8,0-42.6-19.5-42.6-42.4
				C1379.1,360.7,1395.3,338.8,1424.8,338.8z M1424.2,420.8c19.8,0,31.2-19.9,31.2-38.3c0-18.9-11.8-38.7-32.7-38.7
				c-19.6,0-31.1,17.8-31.1,36.3C1391.5,398.8,1403.4,420.8,1424.2,420.8z"/>
			<path fill="#10132F" d="M1479.4,420.6c5.5-0.6,9.1-3.5,9.1-7.8v-60.2c0-6-0.6-7.3-10.3-9.2v-3.1h29.2c22.7,0,31.2,9.3,31.2,20.3
				c0,11.8-10.6,19.9-16.6,23v1.6l18.1,26.6c5.4,7.8,7.9,8.1,11.2,8.3l1.4,0.1l-0.5,4H1534l-0.5-0.4c0,0-2.6-6.3-7.8-13.9l-15.6-23
				h-9.2l-1.3,1.3v24.6c0,3.7-0.6,6.4-0.6,6.4l11.3,1.1l-0.5,3.5l-30.3,0.8V420.6z M1510.2,382.1c7.6,0,16.2-6,16.2-18.3
				c0-9.6-5.4-18.6-20.9-18.6h-4.7l-1.3,1.3v35.6H1510.2z"/>
			<path fill="#10132F" d="M1631.8,338.8c9.4,0,20.7,2.3,27.2,2.9l-3.8,19.1h-4.3c0-13.1-11.1-17.3-21.3-17.3
				c-19.4,0-32.2,15.6-32.2,36c0,22.7,15.9,37.9,36.4,37.9c15.7,0,25.3-8.9,25.3-8.9l1.8,2.6c0,0-9.4,14.6-31.4,14.6
				c-22.4,0-43.8-15.4-43.8-42.6C1585.7,357.5,1604.7,338.8,1631.8,338.8z"/>
			<path fill="#10132F" d="M1716.9,338.8c26.3,0,43.1,17.8,43.1,40.5c0,24.1-18.4,46.5-46.2,46.5c-25.8,0-42.6-19.5-42.6-42.4
				C1671.2,360.7,1687.5,338.8,1716.9,338.8z M1716.3,420.8c19.8,0,31.2-19.9,31.2-38.3c0-18.9-11.8-38.7-32.7-38.7
				c-19.6,0-31.1,17.8-31.1,36.3C1683.7,398.8,1695.5,420.8,1716.3,420.8z"/>
			<path fill="#10132F" d="M1771.7,420.6c5.7-0.6,9.1-3.3,9.1-7.8v-56.7c0-8.7-2-11.2-10.3-12.7v-3.1h3.8c6.2,0,12.6-0.5,12.6-0.5
				s1.5,2.9,4.7,6.5l45.6,52.6c1.6,2,3.7,4.7,5,6.7v-52.4c0-5.5-0.1-8.4-10.3-9.4v-3.5h23.9l0.6,1.8c0,0-8.7,2.4-8.7,12.8v70h-3.3
				l-53.5-63.2c-1.5-1.8-3.3-4.2-4.5-6v57.2c0,3.8-0.6,6.8-0.6,6.8l11.3,0.8l-0.5,3.5l-24.8,0.8V420.6z"/>
			<path fill="#10132F" d="M1913.2,338.8c10.7,0,24.1,2.4,28.2,2.8l-3.8,19.3h-4.3c-0.1-13.9-11.1-17.3-21-17.3
				c-22,0-33.5,17.6-33.5,37.5c0,22.8,15.5,39.3,38.7,39.3c4,0,8.1-0.5,12.6-1.5v-18.3c0-6-0.5-7.6-11.6-9.2v-3.1h26.8l0.6,1.8
				c0,0-4.9,2.3-4.9,12v20.5c-8.2,1.3-19.4,3.3-28.6,3.3c-25.2,0-46-14.7-46-41.8C1866.5,361.4,1881,338.8,1913.2,338.8z"/>
			<path fill="#10132F" d="M1957.2,420.6c5.5-0.6,9.1-3.5,9.1-7.8v-60.2c0-6-0.6-7.3-10.3-9.2v-3.1h29.2c22.7,0,31.2,9.3,31.2,20.3
				c0,11.8-10.6,19.9-16.6,23v1.6l18.1,26.6c5.4,7.8,7.9,8.1,11.2,8.3l1.4,0.1l-0.5,4h-18.3l-0.5-0.4c0,0-2.6-6.3-7.8-13.9l-15.6-23
				h-9.2l-1.3,1.3v24.6c0,3.7-0.6,6.4-0.6,6.4l11.3,1.1l-0.5,3.5l-30.3,0.8V420.6z M1987.9,382.1c7.6,0,16.2-6,16.2-18.3
				c0-9.6-5.4-18.6-20.9-18.6h-4.7l-1.3,1.3v35.6H1987.9z"/>
			<path fill="#10132F" d="M2036.3,420.6c5.7-0.6,9.1-3.3,9.1-7.8v-60.2c0-6-0.6-7.3-10.3-9.2v-3.1h51.9c5.2,0,9.1-0.5,9.1-0.5
				l-3.9,21h-4.3c0.6-13-3.5-15.6-13.6-15.6h-16.5l-1.3,1.3v32.7h23.3l1-7.2l4.7-0.8v22.2h-5.9v-9.3h-21.8l-1.3,1.3v26.9
				c0,3.8-0.6,7.1-0.6,7.1h19.8c10.8,0,12.3-2.4,18.6-15.6h4.3l-4.7,20.5h-39.3c-6.3,0-18.3,0.4-18.3,0.4V420.6z"/>
			<path fill="#10132F" d="M2111.6,401.6h4.3c0,15.4,9.7,19.4,18.3,19.4c8.2,0,16-3.5,16-13.2c0-21.9-39.4-21.5-39.4-47.1
				c0-12.5,9.4-21.9,28.1-21.9c8.9,0,18,2,20.8,2.4l-3.9,19.6h-4.3c1.3-9.4-3.5-17.3-14.1-17.3c-8.4,0-15.6,3.9-15.6,13.1
				c0,22,39.4,19.9,39.4,47c0,15.1-13,22.2-28.1,22.2c-11,0-24.3-3.8-24.3-13C2108.7,410.9,2109.2,409.2,2111.6,401.6z"/>
			<path fill="#10132F" d="M2175.3,401.6h4.3c0,15.4,9.7,19.4,18.3,19.4c8.2,0,16-3.5,16-13.2c0-21.9-39.4-21.5-39.4-47.1
				c0-12.5,9.4-21.9,28.1-21.9c8.9,0,18,2,20.8,2.4l-3.9,19.6h-4.3c1.3-9.4-3.5-17.3-14.1-17.3c-8.4,0-15.6,3.9-15.6,13.1
				c0,22,39.4,19.9,39.4,47c0,15.1-13,22.2-28.1,22.2c-11,0-24.3-3.8-24.3-13C2172.4,410.9,2172.9,409.2,2175.3,401.6z"/>
		</g>
	</g>
	<rect y="340.4" fill="#EE7B1F" width="520.5" height="42.6"/>
</g>
</svg>
